<?xml version="1.0" standalone="no"?>
<!DOCTYPE svg PUBLIC "-//W3C//DTD SVG 20010904//EN"
 "http://www.w3.org/TR/2001/REC-SVG-20010904/DTD/svg10.dtd">
<svg version="1.0" xmlns="http://www.w3.org/2000/svg"
 width="1995.000000pt" height="1555.000000pt" viewBox="0 0 1995.000000 1555.000000"
 preserveAspectRatio="xMidYMid meet">
<metadata>
Created by potrace 1.16, written by Peter Selinger 2001-2019
</metadata>
<g transform="translate(0.000000,1555.000000) scale(0.100000,-0.100000)"
fill="#000000" stroke="none">
<path d="M12380 14705 c-10 -12 -41 -15 -159 -15 -114 0 -152 -3 -167 -15 -13
-10 -45 -14 -100 -15 -60 0 -85 -4 -94 -15 -9 -10 -32 -15 -75 -15 -43 0 -66
-5 -75 -15 -8 -9 -30 -15 -60 -15 -30 0 -52 -6 -60 -15 -8 -9 -30 -15 -60 -15
-30 0 -52 -6 -60 -15 -7 -8 -27 -15 -45 -15 -18 0 -38 -7 -45 -15 -7 -8 -29
-15 -49 -15 -21 0 -46 -7 -57 -15 -10 -8 -29 -15 -41 -15 -12 0 -31 -10 -42
-21 -11 -12 -26 -19 -34 -16 -8 3 -31 -3 -51 -14 -20 -10 -44 -19 -53 -19 -10
0 -27 -7 -37 -15 -11 -8 -27 -15 -37 -15 -9 0 -22 -7 -29 -15 -7 -8 -23 -15
-35 -15 -13 0 -25 -7 -29 -15 -3 -8 -16 -15 -30 -15 -13 0 -26 -7 -30 -15 -3
-8 -16 -15 -30 -15 -13 0 -26 -7 -30 -15 -3 -8 -16 -15 -30 -15 -13 0 -26 -7
-30 -15 -3 -8 -17 -15 -31 -15 -14 0 -28 -7 -31 -15 -4 -8 -12 -15 -19 -15
-12 0 -105 -56 -132 -80 -7 -6 -23 -15 -35 -20 -29 -13 -54 -28 -99 -62 -20
-16 -41 -28 -46 -28 -4 0 -31 -20 -60 -45 -28 -25 -55 -45 -61 -45 -5 0 -46
-35 -92 -77 -45 -43 -88 -80 -94 -82 -18 -6 -276 -273 -276 -285 0 -6 -12 -23
-28 -36 -35 -32 -92 -105 -92 -118 0 -6 -6 -15 -13 -19 -14 -9 -77 -88 -77
-96 0 -3 -13 -25 -29 -49 -16 -24 -39 -63 -52 -88 -13 -25 -29 -51 -36 -58 -7
-7 -13 -22 -13 -32 0 -10 -7 -20 -15 -24 -8 -3 -15 -16 -15 -29 0 -45 -28 -57
-127 -57 -68 0 -94 4 -103 15 -11 13 -59 15 -325 15 -269 0 -314 -2 -319 -15
-4 -12 -31 -15 -150 -15 -119 0 -145 -3 -150 -15 -4 -12 -24 -15 -90 -15 -65
0 -85 -3 -90 -15 -4 -11 -22 -15 -69 -15 -45 0 -68 -5 -77 -15 -7 -9 -30 -15
-54 -15 -22 0 -50 -7 -60 -15 -11 -8 -37 -15 -58 -15 -25 0 -41 -5 -44 -15 -4
-10 -20 -15 -45 -15 -26 0 -42 -5 -45 -15 -4 -8 -18 -15 -33 -15 -15 0 -35 -6
-46 -14 -11 -7 -32 -16 -47 -20 -16 -3 -28 -11 -28 -16 0 -6 -10 -10 -21 -10
-21 0 -108 -38 -119 -51 -3 -4 -16 -10 -30 -14 -14 -4 -27 -10 -30 -14 -13
-15 -71 -51 -83 -51 -8 0 -20 -7 -27 -15 -7 -8 -21 -15 -32 -15 -10 0 -21 -6
-24 -14 -3 -8 -15 -17 -28 -20 -12 -3 -42 -23 -66 -46 -25 -22 -50 -40 -57
-40 -6 0 -29 -16 -50 -36 -21 -20 -60 -53 -88 -74 -83 -62 -355 -341 -355
-364 0 -4 -20 -31 -45 -59 -25 -29 -45 -56 -45 -62 0 -5 -14 -24 -30 -42 -17
-18 -30 -37 -30 -44 0 -6 -13 -28 -29 -48 -15 -20 -31 -46 -35 -58 -4 -13 -11
-23 -15 -23 -5 0 -19 -22 -32 -50 -13 -27 -27 -50 -31 -50 -5 0 -8 -5 -8 -11
0 -15 -80 -178 -91 -185 -5 -3 -9 -16 -9 -28 0 -13 -7 -29 -15 -36 -8 -7 -15
-25 -15 -40 0 -16 -7 -30 -15 -34 -8 -3 -15 -16 -15 -28 0 -13 -7 -32 -15 -42
-8 -11 -15 -32 -15 -47 0 -14 -7 -32 -15 -39 -8 -7 -15 -22 -15 -34 0 -11 -7
-30 -15 -40 -8 -11 -15 -32 -15 -46 0 -14 -7 -35 -15 -46 -8 -10 -15 -38 -15
-60 0 -28 -5 -44 -15 -48 -10 -3 -15 -19 -15 -44 0 -23 -6 -45 -15 -52 -9 -8
-15 -30 -15 -60 0 -30 -6 -52 -15 -60 -10 -8 -15 -30 -15 -65 0 -35 -5 -57
-15 -65 -10 -9 -15 -32 -15 -75 0 -43 -5 -66 -15 -75 -11 -9 -15 -32 -15 -79
-1 -42 -6 -73 -15 -85 -11 -14 -15 -46 -15 -105 0 -59 -4 -89 -14 -100 -11
-12 -15 -47 -17 -124 -2 -70 -7 -114 -15 -125 -9 -11 -13 -49 -14 -109 l0 -93
-143 0 c-110 0 -148 -3 -163 -15 -12 -9 -43 -14 -86 -15 -45 0 -71 -5 -82 -15
-8 -9 -33 -15 -60 -15 -26 0 -51 -6 -60 -15 -8 -8 -27 -15 -43 -15 -15 0 -41
-7 -57 -15 -15 -8 -36 -15 -45 -15 -9 -1 -34 -9 -56 -20 -22 -11 -47 -19 -56
-20 -9 0 -22 -7 -29 -15 -7 -8 -24 -15 -39 -15 -14 0 -35 -7 -45 -15 -11 -8
-28 -15 -38 -15 -10 0 -21 -7 -24 -15 -4 -8 -16 -15 -29 -15 -12 0 -28 -7 -35
-15 -7 -8 -20 -15 -30 -15 -10 0 -23 -7 -30 -15 -7 -8 -21 -15 -32 -15 -10 0
-21 -7 -24 -15 -4 -8 -17 -15 -30 -15 -14 0 -27 -7 -30 -15 -4 -8 -12 -15 -20
-15 -12 0 -63 -30 -136 -81 -15 -11 -30 -19 -34 -19 -3 0 -23 -13 -44 -30 -21
-16 -42 -30 -47 -30 -5 0 -22 -12 -39 -27 -17 -16 -41 -34 -55 -41 -14 -7 -42
-29 -63 -48 -20 -19 -40 -34 -43 -34 -6 0 -83 -58 -98 -74 -5 -6 -27 -23 -48
-37 -22 -15 -65 -52 -97 -83 -32 -31 -61 -56 -65 -56 -10 0 -53 -35 -115 -94
-30 -29 -62 -57 -71 -62 -9 -5 -52 -40 -94 -79 -43 -38 -82 -72 -88 -74 -6 -2
-22 -16 -37 -30 -40 -40 -98 -89 -165 -139 -33 -25 -64 -50 -70 -56 -12 -14
-173 -122 -229 -155 -23 -13 -45 -30 -49 -37 -4 -8 -17 -14 -27 -14 -11 0 -20
-4 -20 -9 0 -5 -12 -14 -28 -20 -15 -6 -35 -15 -45 -21 -45 -27 -53 -30 -67
-36 -8 -3 -28 -12 -43 -20 -16 -7 -37 -14 -48 -14 -11 0 -22 -7 -25 -15 -4
-10 -19 -15 -43 -15 -21 0 -46 -7 -57 -15 -10 -8 -37 -15 -60 -15 -22 0 -49
-7 -60 -15 -29 -22 -426 -22 -444 0 -9 10 -32 15 -75 15 -43 0 -66 5 -75 15
-7 8 -27 15 -45 15 -18 0 -38 7 -45 15 -7 8 -27 15 -45 15 -18 0 -38 7 -45 15
-7 8 -23 15 -35 15 -12 0 -28 7 -35 15 -7 8 -26 15 -42 15 -16 0 -31 6 -34 15
-4 8 -16 15 -29 15 -12 0 -28 7 -35 15 -7 8 -20 15 -30 15 -10 0 -23 7 -30 15
-7 8 -20 15 -30 15 -10 0 -23 7 -30 15 -7 8 -18 15 -24 15 -6 0 -33 16 -60 35
-27 19 -55 35 -63 35 -7 0 -13 5 -13 10 0 6 -6 10 -14 10 -7 0 -25 9 -39 20
-14 11 -31 20 -37 20 -7 0 -29 13 -49 28 -20 16 -57 39 -83 51 -27 13 -50 27
-54 32 -3 5 -14 9 -25 9 -11 0 -22 7 -25 15 -4 8 -17 15 -30 15 -12 0 -27 6
-31 14 -8 13 -78 57 -123 76 -13 6 -27 16 -31 21 -3 5 -16 12 -29 14 -13 2
-26 8 -29 13 -3 4 -35 26 -70 47 -49 29 -68 36 -80 28 -22 -14 -25 -47 -7 -66
9 -9 16 -29 16 -46 0 -16 7 -36 15 -45 8 -8 15 -24 15 -36 0 -12 6 -34 14 -48
8 -15 18 -44 21 -64 3 -21 10 -38 15 -38 6 0 10 -13 10 -28 0 -16 7 -37 15
-48 8 -10 15 -29 15 -41 0 -12 7 -28 15 -37 8 -8 15 -27 15 -43 0 -16 6 -37
14 -48 7 -11 16 -37 20 -57 4 -20 11 -38 16 -40 5 -2 12 -21 16 -43 3 -22 10
-41 15 -43 4 -2 11 -20 15 -40 3 -20 12 -51 20 -69 8 -17 14 -37 14 -45 0 -7
7 -22 15 -32 8 -11 15 -31 15 -45 0 -14 7 -35 15 -45 8 -11 15 -30 15 -42 0
-12 7 -27 15 -34 8 -7 15 -27 15 -45 0 -18 7 -38 15 -45 8 -7 15 -27 15 -45 0
-18 7 -38 15 -45 8 -7 15 -24 15 -39 0 -14 7 -35 15 -45 8 -11 15 -30 15 -43
0 -13 7 -26 15 -29 9 -4 15 -19 15 -39 0 -18 7 -38 15 -45 8 -7 15 -27 15 -45
0 -18 7 -38 15 -45 8 -7 15 -23 15 -35 0 -12 7 -28 15 -35 8 -7 15 -24 15 -39
0 -14 7 -35 15 -45 8 -11 15 -27 15 -37 0 -9 7 -22 15 -29 8 -7 15 -23 15 -37
0 -13 7 -26 15 -29 8 -4 15 -18 15 -33 0 -14 7 -35 15 -45 8 -11 15 -30 15
-42 0 -12 7 -27 15 -34 8 -7 15 -20 15 -30 0 -10 7 -23 15 -30 8 -7 15 -23 15
-37 0 -13 7 -26 15 -29 8 -4 15 -19 15 -34 0 -16 4 -31 9 -34 5 -4 19 -27 31
-54 12 -26 26 -54 31 -62 5 -8 14 -26 19 -40 26 -61 94 -193 107 -205 8 -8 16
-25 18 -37 3 -12 9 -24 14 -27 5 -4 12 -18 16 -33 4 -15 13 -29 21 -32 8 -3
14 -14 14 -24 0 -11 7 -25 15 -32 8 -7 15 -16 15 -21 0 -5 12 -28 27 -52 15
-23 36 -58 46 -77 11 -19 26 -39 33 -43 8 -4 14 -16 14 -26 0 -10 7 -24 15
-31 8 -7 15 -17 15 -22 0 -6 14 -27 30 -48 17 -21 30 -41 30 -45 0 -3 27 -42
60 -85 33 -43 60 -84 60 -89 0 -6 4 -11 8 -11 5 0 26 -25 48 -56 21 -31 58
-77 81 -102 23 -26 43 -51 43 -55 1 -26 416 -447 441 -447 4 0 30 -21 58 -47
65 -62 78 -73 88 -73 4 0 22 -14 40 -30 45 -42 220 -160 238 -160 8 0 18 -6
22 -12 10 -16 39 -35 76 -49 15 -6 27 -15 27 -20 0 -5 9 -9 19 -9 11 0 26 -7
35 -15 8 -8 21 -15 30 -15 8 0 21 -6 28 -13 7 -8 26 -17 41 -21 15 -3 27 -11
27 -16 0 -6 8 -10 18 -10 9 0 31 -9 47 -20 17 -11 39 -20 50 -20 11 0 29 -7
39 -15 11 -8 33 -15 48 -15 16 0 31 -7 34 -15 4 -8 18 -15 33 -15 14 0 35 -7
45 -15 11 -8 36 -15 57 -15 20 0 42 -7 49 -15 7 -8 29 -15 49 -15 20 0 45 -7
55 -15 12 -9 42 -15 77 -15 41 0 58 -4 63 -15 4 -12 24 -15 90 -15 65 0 85 -3
90 -15 4 -12 32 -15 160 -15 124 0 158 -3 170 -15 22 -22 328 -22 346 0 10 12
43 15 180 15 137 0 170 3 180 15 9 11 35 15 105 15 70 0 96 4 105 15 9 10 32
15 75 15 69 0 95 -17 95 -61 0 -14 7 -34 15 -45 8 -10 15 -26 15 -35 0 -9 7
-22 15 -29 8 -7 15 -23 15 -37 0 -13 7 -26 15 -29 8 -4 15 -15 15 -26 0 -11 7
-33 15 -49 8 -16 22 -44 31 -61 9 -18 26 -43 36 -55 11 -12 17 -26 14 -31 -3
-6 1 -17 9 -25 8 -9 19 -26 25 -39 16 -35 61 -111 77 -126 7 -7 13 -19 13 -25
0 -7 13 -27 30 -45 16 -18 30 -40 30 -48 0 -8 13 -29 30 -47 16 -18 30 -36 30
-40 0 -9 5 -16 54 -73 20 -23 36 -45 36 -48 0 -37 410 -440 509 -501 9 -5 32
-22 51 -36 19 -15 54 -37 78 -49 23 -12 42 -26 42 -31 0 -5 8 -9 19 -9 10 0
24 -7 31 -15 7 -8 20 -15 30 -15 10 0 23 -7 30 -15 7 -8 20 -15 29 -15 9 0 30
-9 46 -20 17 -11 41 -20 55 -20 14 0 34 -7 44 -15 11 -8 31 -15 45 -15 14 -1
37 -7 51 -15 14 -8 40 -14 58 -15 18 0 40 -7 48 -15 9 -8 30 -15 48 -15 19 0
39 -7 46 -15 8 -9 30 -15 60 -15 33 0 50 -5 54 -15 4 -12 24 -15 91 -15 67 0
87 -3 91 -15 5 -12 28 -15 119 -15 88 0 115 -3 125 -15 19 -22 561 -22 580 0
10 12 37 15 120 15 83 0 110 3 120 15 8 10 31 15 70 15 39 0 62 5 70 15 8 9
30 15 60 15 30 0 52 6 60 15 7 8 29 15 50 15 21 0 43 7 50 15 7 8 25 15 39 15
15 0 36 7 47 15 10 8 28 15 40 15 11 0 29 7 40 15 10 8 28 15 40 15 12 0 31 9
44 20 13 11 31 20 42 20 10 0 18 4 18 10 0 5 12 12 28 16 40 9 214 97 219 112
3 6 16 12 29 12 14 0 27 7 30 15 4 8 16 15 29 15 13 0 25 6 28 13 2 7 25 23
51 35 25 13 46 27 46 32 0 4 10 11 23 14 12 3 37 19 56 36 18 16 39 30 46 30
6 0 25 13 41 30 16 16 35 30 42 30 14 0 33 14 60 42 9 10 20 18 25 18 12 0 89
60 100 77 4 7 13 13 20 13 7 0 38 23 70 50 32 28 62 50 66 50 4 0 36 27 71 60
36 32 69 59 73 60 10 0 24 12 88 73 28 26 54 47 59 47 5 0 16 -12 24 -28 19
-37 256 -274 331 -330 33 -25 65 -50 70 -56 6 -6 46 -35 90 -63 44 -29 85 -56
90 -60 6 -5 21 -14 35 -21 14 -7 39 -21 55 -32 17 -11 35 -22 40 -24 6 -2 17
-7 25 -10 8 -4 35 -17 59 -31 24 -14 52 -25 61 -25 10 0 23 -7 30 -15 7 -8 23
-15 37 -15 13 0 26 -7 29 -15 4 -9 19 -15 39 -15 18 0 38 -7 45 -15 7 -8 22
-15 34 -15 12 0 31 -7 42 -15 10 -8 30 -15 44 -15 14 0 34 -6 45 -14 11 -7 40
-17 65 -21 25 -4 50 -11 56 -16 6 -5 32 -11 58 -13 26 -3 53 -9 59 -14 7 -6
43 -13 81 -17 38 -4 81 -14 95 -21 16 -9 60 -14 116 -14 59 0 95 -4 103 -12
18 -18 718 -19 753 -1 13 6 73 14 132 16 69 2 112 8 116 16 4 6 40 13 80 16
40 2 78 8 84 13 7 6 40 13 75 17 34 4 62 11 62 15 0 5 27 12 59 16 37 4 62 12
65 20 3 9 21 14 48 14 24 0 52 7 62 15 11 8 34 15 52 15 17 0 37 7 44 15 7 8
24 15 39 15 14 0 35 7 45 15 11 8 30 15 42 15 12 0 27 7 34 15 7 8 25 15 40
15 15 0 33 7 40 15 7 8 23 15 35 15 12 0 28 7 35 15 7 8 22 15 34 15 12 0 26
4 31 9 15 14 168 91 182 91 6 0 13 3 15 8 6 13 67 52 81 52 8 0 20 7 27 15 7
8 21 15 31 15 11 0 19 4 19 9 0 5 21 20 46 33 26 12 49 28 51 35 3 7 9 13 14
13 9 0 68 38 79 51 3 3 29 23 59 44 30 20 64 47 75 59 12 12 39 34 62 49 60
41 344 331 355 364 2 6 16 26 32 45 44 53 117 157 117 167 0 5 6 16 13 23 18
18 59 89 92 158 14 30 39 81 55 113 17 32 30 69 30 82 0 12 7 25 15 29 10 3
15 19 15 45 0 25 5 41 15 45 10 3 15 19 15 44 0 23 6 45 15 52 10 8 15 31 15
65 0 34 5 55 13 57 8 3 14 34 17 88 l5 84 60 -3 c33 -1 66 -8 74 -14 20 -17
689 -17 699 -1 4 7 43 13 90 15 56 3 86 9 91 18 6 8 34 15 76 18 40 2 73 10
82 19 8 8 33 14 56 14 23 0 51 7 61 15 11 8 35 15 53 15 21 0 36 6 39 15 4 10
20 15 44 15 21 0 43 7 50 15 7 8 25 15 40 15 15 0 33 7 40 15 7 8 25 15 39 15
15 0 36 7 47 15 10 8 29 15 40 15 12 0 27 7 34 15 7 8 20 15 30 15 10 0 23 7
30 15 7 8 21 15 31 15 18 0 158 67 169 81 3 4 16 10 30 14 14 4 27 10 30 14
13 15 71 51 83 51 8 0 20 7 27 15 7 8 21 15 31 15 11 0 19 5 19 10 0 6 10 14
23 19 12 5 39 21 60 35 21 14 44 26 52 26 8 0 15 4 15 10 0 5 15 16 34 25 18
9 42 24 52 33 11 10 37 29 59 42 22 13 54 37 70 52 17 15 35 28 40 28 6 0 32
20 58 45 27 25 51 45 54 45 6 0 153 128 163 142 3 4 53 56 110 116 116 122
130 137 130 150 0 4 14 21 30 37 17 16 47 54 68 84 20 30 47 66 60 79 12 14
22 30 22 37 0 6 16 29 35 51 19 21 35 47 35 56 0 9 3 18 8 20 10 4 52 65 52
76 0 5 7 15 15 22 8 7 15 18 15 26 0 7 13 33 30 57 17 25 30 49 30 55 0 5 7
15 15 22 8 7 15 20 15 30 0 10 7 23 15 30 8 7 15 20 15 30 0 10 7 23 15 30 8
7 15 20 15 30 0 10 7 23 15 30 8 7 15 23 15 35 0 12 7 28 15 35 8 7 15 25 15
40 0 15 7 33 15 40 8 7 15 22 15 34 0 12 7 31 15 42 8 10 15 29 15 41 0 12 7
28 15 37 8 8 15 31 15 51 0 22 6 38 15 41 10 4 15 20 15 44 0 21 7 43 15 50 8
7 15 24 15 39 0 14 7 38 14 53 8 15 17 49 19 75 2 26 9 49 16 51 6 2 11 26 11
57 0 39 4 57 16 63 10 6 17 29 21 70 3 34 9 62 14 62 4 0 11 36 15 80 3 44 10
83 14 85 5 3 11 49 15 103 4 53 12 103 18 110 5 7 12 81 15 165 3 90 9 158 16
166 15 19 15 659 0 669 -7 4 -13 68 -16 171 -3 90 -10 166 -15 170 -6 3 -13
51 -17 106 -4 55 -11 104 -15 110 -5 5 -11 41 -15 80 -4 38 -11 74 -15 80 -5
5 -12 40 -16 77 -3 38 -13 72 -21 79 -9 7 -14 31 -14 64 0 31 -5 55 -11 57 -7
2 -14 26 -16 53 -3 27 -11 58 -19 69 -8 11 -14 35 -14 52 0 17 -7 37 -15 44
-8 7 -15 29 -15 50 0 24 -5 40 -15 44 -10 3 -15 19 -15 44 0 23 -6 45 -15 52
-8 7 -15 27 -15 45 0 18 -7 38 -15 45 -8 7 -15 24 -15 39 0 14 -7 35 -15 45
-8 11 -15 30 -15 42 0 12 -7 24 -15 28 -9 3 -15 18 -15 39 0 19 -7 40 -15 47
-8 7 -15 23 -15 35 0 13 -7 25 -15 29 -8 3 -15 17 -15 31 0 14 -7 28 -15 31
-8 4 -15 17 -15 30 0 14 -7 27 -15 30 -8 4 -15 16 -15 29 0 12 -7 28 -15 35
-8 7 -15 20 -15 30 0 10 -7 23 -15 30 -8 7 -15 20 -15 30 0 10 -7 23 -15 30
-8 7 -15 21 -15 31 0 10 -4 20 -9 23 -5 4 -19 27 -31 52 -13 25 -29 48 -36 51
-8 3 -14 13 -14 23 0 9 -8 26 -18 38 -10 11 -27 37 -37 56 -11 20 -23 36 -27
36 -5 0 -8 5 -8 10 0 6 -16 33 -35 60 -19 27 -35 53 -35 58 0 9 -90 114 -107
125 -7 4 -13 13 -13 19 0 13 -54 82 -107 136 -24 23 -43 47 -43 52 0 12 -205
220 -218 220 -5 0 -23 15 -39 33 -45 51 -165 157 -177 157 -6 0 -21 11 -34 24
-30 32 -319 226 -336 226 -8 0 -16 7 -20 15 -3 8 -15 15 -27 15 -12 0 -27 6
-33 14 -17 22 -126 76 -153 76 -13 0 -26 7 -29 15 -4 8 -14 15 -24 15 -10 0
-25 7 -34 15 -8 8 -23 15 -34 15 -11 0 -25 7 -32 15 -7 8 -28 18 -48 21 -20 4
-43 13 -50 21 -7 7 -23 13 -35 13 -12 0 -31 7 -41 15 -11 8 -36 15 -57 15 -24
0 -39 5 -43 15 -3 10 -19 15 -44 15 -23 0 -45 6 -52 15 -8 9 -30 15 -60 15
-30 0 -52 6 -60 15 -9 10 -32 15 -75 15 -43 0 -66 5 -75 15 -9 11 -33 15 -90
15 -57 0 -81 4 -90 15 -11 13 -64 15 -366 15 -340 0 -354 1 -354 19 0 10 -7
24 -15 31 -9 7 -15 29 -15 52 0 25 -5 41 -15 44 -10 4 -15 20 -15 44 0 21 -7
43 -15 50 -8 7 -15 25 -15 40 0 15 -7 33 -15 40 -8 7 -15 25 -15 40 0 16 -7
30 -15 34 -9 3 -15 18 -15 34 0 16 -7 35 -15 42 -8 7 -15 19 -15 27 0 7 -16
44 -37 81 -20 37 -43 79 -50 94 -8 15 -18 30 -24 33 -5 4 -9 12 -9 20 0 12
-51 96 -85 140 -8 10 -15 24 -15 30 0 6 -12 24 -28 41 -15 16 -33 41 -40 55
-7 14 -28 42 -47 62 -18 20 -35 40 -36 46 -14 39 -407 441 -431 441 -7 0 -24
12 -38 27 -14 14 -43 38 -65 52 -22 14 -51 36 -65 49 -14 12 -30 22 -36 22 -6
0 -28 16 -50 35 -21 19 -47 35 -56 35 -10 0 -18 5 -18 10 0 6 -10 15 -22 21
-34 15 -68 35 -81 48 -6 6 -19 11 -29 11 -10 0 -21 7 -24 15 -4 8 -17 15 -30
15 -14 0 -27 7 -30 15 -4 8 -17 15 -30 15 -14 0 -27 7 -30 15 -4 8 -16 15 -29
15 -12 0 -28 6 -34 14 -7 8 -26 18 -42 21 -16 4 -31 11 -34 16 -4 5 -17 9 -30
9 -13 0 -30 7 -38 15 -8 7 -28 17 -43 21 -16 4 -38 13 -49 20 -11 8 -31 14
-45 14 -14 0 -34 7 -44 15 -11 8 -36 15 -57 15 -24 0 -39 5 -43 15 -3 10 -19
15 -43 15 -21 0 -47 7 -57 15 -11 8 -39 15 -62 15 -25 0 -47 6 -54 15 -9 10
-32 15 -75 15 -43 0 -66 5 -75 15 -9 11 -33 15 -90 15 -57 0 -81 4 -90 15 -10
12 -42 15 -165 15 -123 0 -155 3 -165 15 -10 13 -50 15 -245 15 -195 0 -235
-2 -245 -15z m720 -35 c36 -6 99 -14 140 -19 41 -6 95 -14 120 -20 217 -49
360 -85 387 -97 17 -8 37 -14 45 -14 7 0 45 -12 83 -26 39 -14 84 -30 102 -35
18 -5 35 -14 38 -19 4 -6 13 -10 20 -10 13 0 50 -16 225 -98 182 -85 459 -272
639 -431 81 -71 256 -249 292 -296 13 -16 29 -36 36 -43 19 -20 183 -240 183
-246 0 -3 13 -24 29 -48 46 -70 76 -125 147 -268 88 -179 104 -214 104 -233 0
-9 4 -18 9 -22 5 -3 12 -19 16 -36 4 -17 13 -42 21 -57 8 -15 14 -34 14 -43 0
-9 7 -30 15 -45 8 -16 15 -39 15 -52 0 -13 7 -36 15 -52 l15 -28 322 -5 c178
-2 350 -9 383 -15 33 -7 89 -16 125 -21 142 -21 401 -85 449 -110 11 -6 31
-11 45 -11 14 0 28 -4 31 -10 3 -5 14 -10 23 -10 10 0 35 -9 57 -20 22 -11 45
-20 51 -20 7 0 25 -6 41 -14 29 -14 87 -40 113 -50 8 -3 22 -10 30 -15 8 -5
49 -25 90 -45 41 -20 82 -41 90 -46 8 -5 56 -32 105 -61 156 -92 327 -217 473
-345 138 -122 336 -330 422 -444 19 -25 45 -57 58 -71 13 -13 49 -62 80 -109
31 -47 60 -87 63 -90 5 -5 96 -152 143 -233 15 -26 56 -100 97 -177 20 -37
137 -290 154 -330 17 -45 29 -72 59 -143 9 -21 16 -45 16 -55 0 -9 7 -26 15
-36 8 -11 15 -31 15 -45 0 -14 7 -35 15 -45 8 -11 15 -31 15 -45 0 -14 7 -35
15 -45 8 -11 15 -30 15 -43 0 -12 6 -37 14 -55 13 -33 33 -99 42 -148 3 -14
11 -47 19 -75 23 -85 38 -148 46 -200 22 -132 32 -185 45 -237 8 -32 14 -81
14 -110 0 -29 5 -69 11 -88 6 -19 15 -100 19 -180 5 -80 14 -221 21 -314 10
-136 10 -203 0 -345 -7 -97 -16 -232 -20 -301 -4 -69 -13 -156 -19 -195 -16
-99 -33 -212 -42 -270 -12 -78 -31 -167 -42 -200 -6 -16 -13 -50 -17 -75 -4
-25 -12 -61 -18 -80 -6 -19 -19 -62 -28 -95 -9 -33 -21 -73 -27 -90 -5 -16
-13 -47 -18 -68 -4 -21 -13 -44 -19 -50 -6 -6 -11 -19 -11 -29 0 -9 -6 -32
-14 -50 -8 -18 -22 -53 -31 -78 -9 -25 -23 -58 -30 -75 -7 -16 -23 -55 -35
-85 -21 -51 -129 -275 -150 -310 -52 -88 -100 -172 -100 -175 0 -11 -170 -254
-249 -355 -96 -123 -255 -292 -361 -383 -139 -118 -164 -139 -189 -155 -14 -9
-32 -22 -39 -29 -16 -15 -197 -135 -232 -153 -14 -7 -27 -16 -30 -20 -5 -6
-105 -65 -140 -83 -8 -4 -42 -23 -75 -42 -101 -58 -405 -205 -425 -205 -4 0
-21 -7 -36 -15 -16 -8 -36 -15 -44 -15 -9 0 -21 -5 -27 -11 -6 -6 -26 -14 -44
-19 -32 -8 -55 -15 -139 -45 -19 -7 -64 -20 -100 -30 -36 -9 -85 -23 -110 -31
-25 -8 -60 -14 -78 -14 -18 0 -43 -5 -55 -12 -12 -6 -56 -15 -97 -19 -41 -4
-97 -12 -125 -19 -68 -15 -566 -14 -620 1 -22 7 -72 14 -111 16 l-71 4 -11
-83 c-15 -112 -55 -274 -78 -320 -8 -14 -14 -37 -14 -50 0 -12 -7 -32 -15 -42
-8 -11 -15 -26 -15 -33 0 -12 -42 -109 -72 -166 -38 -75 -82 -154 -91 -166 -6
-7 -16 -22 -22 -32 -33 -60 -140 -203 -224 -301 -108 -124 -291 -293 -400
-368 -20 -14 -42 -31 -49 -38 -17 -15 -230 -156 -252 -166 -8 -3 -28 -15 -45
-25 -28 -18 -266 -138 -330 -166 -94 -42 -125 -55 -133 -55 -5 0 -23 -7 -38
-15 -16 -8 -36 -15 -44 -15 -8 0 -24 -7 -34 -15 -11 -8 -28 -15 -38 -15 -9 0
-32 -6 -50 -14 -18 -8 -60 -22 -93 -31 -33 -9 -80 -23 -105 -31 -25 -8 -53
-14 -64 -14 -10 0 -39 -6 -65 -14 -79 -25 -184 -46 -224 -46 -21 0 -48 -5 -59
-11 -11 -6 -68 -15 -127 -20 -58 -5 -131 -13 -161 -18 -70 -12 -567 -12 -640
0 -30 5 -101 13 -158 18 -56 6 -106 12 -111 16 -6 3 -40 10 -78 15 -94 13
-183 36 -376 96 -64 20 -120 40 -123 45 -3 5 -14 9 -25 9 -18 0 -56 16 -228
97 -263 124 -568 358 -747 574 -58 69 -85 83 -108 55 -38 -47 -607 -482 -696
-532 -11 -6 -28 -18 -38 -27 -10 -10 -21 -17 -24 -17 -3 0 -38 -22 -79 -49
-76 -49 -146 -90 -281 -160 -98 -51 -106 -55 -148 -73 -19 -8 -51 -22 -70 -31
-103 -46 -338 -126 -438 -148 -403 -89 -760 -102 -1167 -44 -55 8 -122 17
-150 20 -27 4 -63 10 -80 15 -16 5 -84 25 -150 45 -66 20 -145 44 -175 52
-137 40 -159 48 -281 107 -191 92 -400 251 -577 435 -106 111 -279 327 -332
416 -13 22 -27 42 -31 45 -3 3 -15 21 -26 40 -10 19 -31 54 -46 78 -32 50 -62
104 -98 177 -9 17 -25 48 -37 70 -27 50 -102 214 -102 223 0 4 -6 19 -14 34
-8 15 -17 39 -20 55 -4 15 -15 38 -24 51 l-18 23 -84 -16 c-47 -8 -119 -20
-160 -25 -41 -6 -100 -15 -130 -21 -30 -5 -118 -12 -195 -15 -77 -3 -147 -8
-155 -11 -43 -14 -561 7 -635 26 -22 6 -55 11 -74 11 -19 0 -62 6 -95 14 -34
8 -104 24 -156 36 -52 11 -102 25 -111 30 -9 5 -34 12 -55 16 -22 3 -43 10
-49 14 -5 4 -23 10 -40 14 -16 4 -43 13 -60 20 -16 8 -50 22 -75 31 -253 98
-550 271 -775 452 -44 36 -96 79 -115 97 -252 230 -373 360 -567 613 -51 67
-253 360 -253 368 0 2 -12 23 -27 47 -46 72 -53 82 -146 248 -73 128 -281 557
-342 705 -20 50 -43 105 -51 123 -30 69 -42 99 -59 142 -10 25 -23 59 -30 75
-7 17 -21 50 -30 75 -9 25 -23 60 -31 78 -8 18 -14 41 -14 50 0 10 -5 23 -11
29 -6 6 -14 26 -19 44 -5 19 -18 59 -30 89 -12 30 -26 69 -30 85 -9 30 -19 59
-60 165 -12 30 -26 73 -31 95 -6 21 -13 44 -18 50 -4 5 -18 44 -30 85 -13 41
-28 79 -32 85 -5 5 -9 18 -9 30 0 11 -7 33 -15 49 -8 15 -15 36 -15 45 0 10
-7 26 -15 37 -8 10 -15 28 -15 39 0 17 -16 63 -51 150 -4 11 -24 70 -44 130
-19 61 -39 119 -44 130 -14 33 -31 91 -31 104 0 18 33 5 128 -50 45 -27 85
-49 88 -49 2 0 23 -12 47 -27 63 -41 80 -51 103 -62 11 -5 51 -28 88 -50 36
-23 69 -41 71 -41 3 0 60 -33 128 -73 67 -39 133 -78 147 -85 14 -7 40 -21 59
-33 59 -36 293 -149 307 -149 3 0 20 -6 37 -14 74 -32 216 -74 342 -101 107
-23 416 -17 515 9 65 17 138 41 175 57 11 4 45 18 75 31 30 12 73 33 95 45 22
12 50 27 63 33 57 25 428 284 467 325 6 6 33 29 60 50 28 22 55 45 60 51 6 6
39 35 75 64 36 29 67 56 70 59 3 4 32 29 65 56 33 28 79 67 101 88 23 21 57
49 75 63 18 13 35 27 38 31 3 5 29 26 56 48 28 21 52 42 55 45 19 21 376 290
386 290 3 0 23 12 43 28 20 15 45 32 56 39 11 6 56 34 100 60 44 27 118 68
165 91 47 24 92 47 100 52 17 9 78 36 130 58 94 39 126 51 230 83 36 11 79 25
95 31 17 5 53 14 82 18 28 5 57 11 62 15 20 12 186 35 326 46 77 6 140 11 141
12 1 1 4 27 7 57 3 30 11 82 16 115 6 33 11 81 11 107 0 26 6 83 14 125 8 43
20 116 26 163 17 130 27 191 38 240 5 25 18 81 27 125 9 44 21 98 27 120 5 22
13 56 18 75 18 77 41 166 49 185 5 11 18 54 31 95 12 41 25 84 30 95 4 11 18
49 31 85 12 36 26 69 31 75 4 5 8 15 8 23 0 8 9 33 19 56 11 23 27 59 36 81
27 65 166 339 180 355 7 8 20 30 30 49 9 19 21 39 26 45 5 6 30 43 56 81 100
153 270 345 434 492 89 80 310 240 369 266 8 4 29 16 45 26 53 34 294 151 311
151 5 0 21 7 36 14 39 20 235 86 256 86 10 0 22 4 27 9 6 5 35 15 65 21 30 6
87 18 125 26 39 9 97 20 130 25 33 5 89 15 125 21 36 6 117 15 180 19 63 5
144 11 180 13 202 15 325 17 363 8 23 -6 122 -14 219 -18 199 -8 194 -9 232
65 77 153 137 248 252 401 97 129 109 143 264 300 181 184 378 341 585 467
140 85 201 119 320 177 77 37 154 73 170 80 17 7 46 19 65 28 19 8 52 23 73
32 21 9 45 16 55 16 9 0 26 7 36 15 11 8 27 15 35 15 9 0 29 7 45 15 15 8 37
15 48 15 11 0 28 5 39 11 40 21 289 86 439 113 41 8 95 19 120 25 25 6 63 11
86 11 23 0 55 5 71 11 17 5 93 14 169 19 173 11 756 4 844 -10z"/>
<path d="M12385 14309 c-99 -3 -198 -11 -220 -17 -22 -6 -68 -12 -101 -12 -34
0 -78 -7 -97 -15 -20 -8 -52 -15 -71 -15 -19 0 -47 -5 -61 -10 -26 -10 -102
-28 -210 -51 -27 -6 -54 -14 -60 -19 -5 -4 -27 -10 -47 -14 -20 -4 -50 -13
-65 -21 -15 -8 -38 -15 -50 -15 -12 0 -24 -4 -28 -9 -3 -5 -20 -13 -38 -17
-17 -3 -48 -13 -67 -21 -143 -61 -238 -102 -260 -114 -8 -4 -53 -27 -100 -50
-159 -79 -457 -270 -505 -323 -5 -6 -40 -35 -76 -63 -92 -73 -300 -290 -391
-410 -43 -56 -78 -104 -78 -107 0 -2 -19 -33 -42 -68 -59 -88 -62 -94 -101
-173 -67 -138 -97 -205 -97 -216 0 -6 -6 -23 -14 -37 -24 -48 -61 -165 -77
-247 -5 -27 -13 -57 -16 -65 -10 -23 -31 -154 -42 -260 -12 -113 -13 -410 -1
-530 14 -146 55 -378 71 -405 3 -5 9 -23 13 -40 7 -33 16 -54 73 -168 45 -92
46 -95 99 -173 87 -129 255 -300 411 -417 121 -92 248 -177 263 -177 5 0 32
-16 61 -35 30 -19 59 -35 66 -35 7 0 21 -4 31 -10 9 -5 40 -19 67 -30 28 -11
62 -27 77 -35 14 -8 37 -15 50 -15 13 0 29 -5 35 -11 6 -6 29 -15 50 -19 21
-5 52 -13 68 -18 57 -20 120 -34 191 -43 40 -5 84 -13 99 -19 43 -16 374 -13
442 5 31 8 73 15 93 15 19 0 44 7 54 15 11 8 30 15 43 15 12 0 39 7 60 16 66
29 188 87 193 93 3 3 32 24 65 46 98 66 237 212 285 301 12 21 30 53 41 69 10
17 21 37 25 45 12 31 23 56 41 100 11 25 27 70 35 100 78 274 80 285 75 385
-2 50 -10 113 -16 140 -21 84 -43 158 -57 193 -8 18 -14 43 -14 55 0 12 -7 31
-15 41 -8 11 -15 30 -15 42 0 12 -6 35 -14 51 -38 76 -54 293 -27 363 29 72
47 103 88 146 47 51 59 54 75 19 6 -14 15 -25 20 -25 4 0 8 -6 8 -14 0 -8 27
-68 59 -133 74 -148 101 -208 101 -227 0 -8 3 -17 8 -19 4 -3 18 -38 31 -79
13 -40 27 -81 32 -90 8 -16 13 -31 39 -138 7 -25 16 -60 22 -79 6 -19 15 -62
20 -95 5 -34 13 -86 18 -116 12 -76 11 -405 -1 -460 -6 -25 -14 -68 -19 -96
-4 -28 -13 -61 -19 -72 -6 -11 -11 -28 -11 -37 0 -38 -90 -222 -157 -322 -151
-225 -411 -418 -708 -526 -92 -33 -112 -39 -153 -48 -23 -5 -51 -13 -61 -19
-11 -5 -34 -10 -52 -10 -18 0 -58 -6 -88 -14 -181 -47 -615 -44 -891 4 -61 11
-100 20 -210 49 -25 7 -61 16 -80 21 -45 10 -146 46 -217 76 -18 8 -48 20 -65
27 -63 26 -253 122 -266 134 -7 7 -17 13 -22 13 -9 0 -173 107 -210 137 -149
118 -221 184 -297 273 -36 41 -79 91 -96 110 -85 99 -266 418 -290 515 -3 11
-17 52 -31 90 -14 39 -26 81 -26 95 0 14 -7 36 -15 50 -8 14 -14 41 -15 61 0
19 -6 58 -14 85 -36 125 -37 632 0 775 8 31 14 76 14 100 1 24 7 55 15 69 8
14 15 43 15 65 0 22 7 51 15 65 8 14 15 39 15 55 0 17 7 41 15 55 8 14 15 39
15 55 0 17 7 39 15 49 8 11 15 30 15 42 0 21 -5 22 -140 29 -188 10 -618 -3
-695 -21 -33 -7 -81 -14 -106 -14 -26 0 -63 -7 -82 -15 -20 -8 -56 -15 -79
-15 -24 -1 -54 -7 -68 -15 -14 -8 -38 -14 -53 -15 -15 0 -40 -6 -55 -14 -15
-7 -46 -17 -69 -21 -24 -4 -45 -11 -49 -16 -3 -5 -13 -9 -22 -9 -9 0 -30 -7
-46 -15 -15 -8 -33 -15 -38 -15 -15 0 -262 -117 -323 -153 -208 -123 -357
-247 -556 -463 -44 -48 -169 -208 -169 -217 0 -3 -19 -33 -42 -68 -69 -103
-170 -301 -242 -471 -7 -18 -21 -50 -30 -71 -9 -21 -16 -42 -16 -48 0 -6 -6
-25 -14 -42 -8 -18 -22 -57 -31 -87 -10 -30 -23 -73 -30 -95 -8 -22 -17 -56
-20 -75 -4 -19 -10 -39 -14 -45 -3 -5 -11 -35 -18 -65 -7 -30 -19 -86 -28
-125 -23 -97 -43 -195 -60 -294 -8 -46 -17 -91 -19 -100 -3 -9 -8 -50 -11 -91
-3 -41 -10 -88 -15 -105 -5 -16 -14 -90 -19 -163 -6 -74 -13 -137 -16 -141 -2
-5 -9 -95 -14 -201 -6 -106 -15 -198 -21 -205 -8 -10 -50 -12 -188 -8 -175 6
-285 -2 -457 -32 -116 -20 -273 -59 -322 -81 -17 -8 -38 -14 -46 -14 -9 0 -29
-7 -46 -15 -17 -8 -45 -22 -62 -30 -17 -8 -39 -15 -49 -15 -9 0 -23 -7 -30
-15 -7 -8 -18 -15 -24 -15 -7 0 -46 -18 -86 -40 -41 -21 -87 -44 -103 -51 -15
-6 -27 -15 -27 -20 0 -5 -6 -9 -13 -9 -8 0 -33 -13 -55 -30 -23 -16 -44 -30
-47 -30 -21 0 -321 -222 -522 -387 -164 -135 -283 -235 -358 -302 -23 -20 -62
-54 -89 -76 -27 -22 -54 -45 -60 -50 -17 -17 -155 -127 -195 -157 -20 -15 -41
-32 -47 -36 -27 -24 -226 -163 -269 -188 -88 -54 -160 -93 -215 -119 -30 -14
-63 -30 -72 -35 -10 -6 -24 -10 -32 -10 -7 0 -19 -6 -25 -14 -6 -8 -24 -16
-39 -19 -24 -5 -103 -30 -142 -45 -36 -14 -144 -34 -255 -48 -123 -15 -352
-12 -460 6 -93 16 -254 56 -325 81 -150 52 -186 67 -346 145 -83 41 -156 74
-163 74 -13 0 -7 -35 14 -85 8 -16 24 -61 36 -100 12 -38 26 -74 31 -79 4 -6
8 -19 8 -29 0 -10 6 -31 14 -45 14 -27 26 -58 67 -167 12 -33 25 -69 30 -80 4
-11 18 -45 30 -75 12 -30 28 -69 35 -87 8 -17 14 -36 14 -42 0 -6 4 -19 9 -29
14 -24 60 -129 96 -217 9 -22 23 -55 31 -72 8 -18 22 -50 31 -70 9 -21 20 -45
25 -53 4 -8 11 -22 14 -30 13 -32 176 -358 210 -420 58 -106 74 -133 95 -165
10 -16 24 -41 30 -55 5 -14 20 -38 33 -55 12 -16 40 -59 61 -95 21 -36 41 -67
45 -70 3 -3 23 -32 45 -65 22 -33 43 -62 46 -65 3 -3 23 -30 44 -60 21 -30 41
-57 44 -60 4 -3 24 -27 46 -55 159 -202 385 -426 575 -570 104 -79 197 -145
204 -145 4 0 147 -81 176 -100 8 -6 25 -15 38 -20 13 -5 46 -21 75 -34 29 -13
75 -34 102 -45 28 -12 57 -25 65 -30 9 -5 30 -12 49 -16 18 -4 44 -13 59 -21
15 -8 36 -14 47 -14 12 0 25 -4 30 -9 6 -5 33 -14 60 -20 48 -10 89 -19 178
-42 23 -6 78 -15 122 -19 44 -5 96 -13 115 -19 46 -14 724 -15 750 -1 10 5 66
14 124 19 57 5 111 13 117 17 7 4 43 10 78 13 75 7 84 19 57 76 -9 18 -16 48
-16 67 0 18 -7 51 -15 73 -8 22 -14 60 -15 85 0 25 -7 77 -15 115 -17 81 -20
355 -4 425 5 25 13 79 18 121 4 42 12 82 16 89 5 8 12 32 16 55 4 22 12 56 19
75 46 128 51 139 103 248 153 317 515 653 867 804 19 8 55 24 80 35 38 18 133
51 267 94 18 5 54 14 80 19 27 5 71 14 98 19 179 36 237 41 460 40 127 0 253
-4 280 -10 28 -5 77 -13 110 -19 75 -12 202 -44 212 -53 3 -4 16 -7 27 -7 12
-1 39 -9 61 -20 22 -11 45 -19 52 -20 10 0 52 -19 93 -42 8 -4 22 -11 30 -14
8 -3 22 -10 30 -15 8 -5 22 -12 30 -16 30 -13 176 -111 215 -144 80 -68 161
-157 213 -235 28 -43 55 -83 60 -89 13 -18 72 -144 72 -156 0 -6 6 -25 14 -42
22 -49 36 -111 57 -247 19 -131 22 -215 10 -313 -8 -64 -19 -77 -70 -77 -62 0
-127 101 -231 360 -12 30 -26 62 -31 70 -5 8 -12 22 -15 30 -38 100 -148 286
-223 378 -87 108 -254 221 -371 252 -25 6 -106 18 -180 25 -74 8 -173 18 -220
24 -100 13 -367 14 -460 1 -78 -10 -200 -34 -255 -50 -129 -38 -267 -84 -271
-92 -3 -4 -15 -8 -28 -8 -12 0 -31 -7 -42 -15 -10 -8 -27 -15 -36 -15 -30 0
-207 -98 -287 -158 -128 -95 -236 -214 -307 -337 -30 -50 -84 -171 -84 -186 0
-6 -6 -25 -14 -42 -48 -108 -70 -266 -71 -497 0 -204 11 -314 49 -495 38 -176
115 -414 172 -528 8 -16 14 -37 14 -47 0 -9 7 -23 15 -30 8 -7 15 -17 15 -24
0 -6 24 -57 53 -114 28 -56 58 -115 66 -130 23 -45 190 -301 209 -321 7 -8 21
-26 30 -40 18 -27 21 -32 92 -116 74 -89 223 -235 300 -296 41 -32 83 -65 92
-74 10 -8 21 -15 24 -15 3 0 24 -12 47 -27 70 -46 81 -53 107 -63 14 -6 34
-14 45 -19 53 -23 107 -42 175 -61 41 -12 94 -28 118 -36 23 -8 50 -14 60 -14
9 0 26 -7 36 -15 11 -8 29 -15 40 -15 12 0 39 -7 61 -15 22 -8 62 -14 89 -15
26 0 76 -8 110 -17 90 -24 746 -24 821 0 28 9 64 17 81 17 18 0 56 7 85 16 69
20 148 42 174 48 29 7 105 35 142 51 17 8 36 15 41 15 6 0 23 7 39 15 15 8 54
26 86 40 126 56 157 72 322 171 137 83 185 114 248 161 31 24 60 43 63 43 9 0
258 192 262 202 2 4 10 8 17 8 8 0 18 6 22 13 4 8 40 38 78 68 39 29 75 59 80
65 6 6 30 26 55 44 25 18 50 38 55 44 6 6 42 36 80 66 62 49 102 82 139 115 6
6 33 28 60 49 58 47 67 44 113 -40 18 -32 42 -77 54 -99 69 -126 262 -340 410
-455 35 -27 71 -55 79 -63 9 -7 34 -24 55 -37 22 -13 42 -27 45 -31 9 -13 320
-169 338 -169 9 0 26 -7 36 -15 11 -8 30 -15 42 -15 12 0 27 -7 34 -15 7 -8
25 -15 41 -15 16 0 43 -6 61 -14 60 -24 135 -46 162 -46 15 0 43 -7 63 -15 19
-8 49 -15 65 -15 17 0 60 -7 97 -15 99 -21 369 -45 511 -45 169 1 666 54 700
75 6 4 35 11 63 16 81 13 171 35 195 48 11 6 32 11 45 11 14 0 38 7 53 15 16
8 38 15 50 15 11 0 29 7 40 15 10 8 30 15 42 15 13 0 36 6 50 14 15 8 68 31
117 51 117 49 262 119 353 172 40 24 74 43 77 43 9 0 186 126 298 212 35 26
228 217 283 278 92 104 194 252 249 365 9 17 19 37 24 45 9 15 30 62 55 122 8
18 21 50 30 71 9 21 16 46 16 57 0 11 6 34 14 52 18 43 35 123 46 223 5 44 12
90 15 103 7 30 -37 72 -76 72 -16 0 -45 7 -66 16 -94 40 -109 47 -123 55 -8 5
-22 12 -30 15 -8 3 -22 10 -30 15 -8 5 -24 13 -36 18 -100 44 -304 200 -410
314 -62 67 -184 220 -184 231 0 2 -17 31 -38 63 -44 66 -137 254 -147 296 -4
15 -11 30 -16 33 -5 3 -9 12 -9 21 0 8 -6 29 -13 46 -24 56 -47 134 -47 157 0
12 -6 36 -14 53 -8 18 -17 48 -19 67 -3 19 -10 60 -15 90 -42 211 -57 584 -31
740 6 36 15 99 19 140 10 89 26 176 45 245 30 110 48 171 57 190 4 11 12 34
17 50 5 17 19 55 31 85 12 30 24 65 27 77 3 12 11 28 19 34 8 6 14 19 14 29 0
10 7 23 15 30 8 7 15 21 15 31 0 10 4 20 9 23 5 3 19 25 31 48 65 124 159 248
284 373 72 72 151 144 176 160 25 16 47 33 50 36 8 10 168 97 192 105 13 4 32
13 43 20 11 8 27 14 36 14 9 0 30 7 45 15 16 8 39 15 52 15 13 0 32 5 44 11
26 14 155 31 238 31 91 0 269 -18 303 -31 16 -6 39 -11 52 -11 53 0 217 -84
274 -140 74 -72 100 -176 65 -267 -14 -36 -22 -44 -51 -49 -46 -9 -188 12
-238 35 -19 8 -56 20 -210 67 -85 25 -344 26 -394 1 -19 -9 -41 -17 -49 -17
-33 0 -179 -83 -217 -124 -50 -53 -115 -131 -129 -156 -6 -10 -41 -62 -77
-117 -37 -54 -78 -118 -92 -143 -26 -46 -133 -258 -147 -295 -41 -99 -69 -177
-75 -206 -4 -19 -11 -38 -15 -44 -5 -5 -13 -32 -19 -60 -5 -27 -15 -72 -21
-100 -41 -188 -42 -197 -42 -445 0 -194 3 -258 15 -296 9 -27 21 -74 27 -104
22 -111 30 -144 40 -154 6 -6 10 -18 10 -27 0 -49 184 -407 230 -449 3 -3 16
-19 28 -36 102 -147 333 -346 507 -436 134 -70 183 -92 255 -117 237 -82 387
-106 665 -106 246 0 431 22 585 71 25 8 55 14 68 14 13 0 33 5 45 12 12 6 38
15 57 19 43 9 96 27 133 45 16 8 35 14 44 14 8 0 27 6 41 14 15 8 47 22 72 31
25 9 52 21 60 26 8 5 22 12 30 15 38 15 241 118 295 149 33 19 69 39 80 45 11
6 34 19 50 30 17 11 37 23 45 27 16 8 280 184 302 201 74 61 182 157 223 198
131 134 186 194 234 254 28 36 64 80 79 98 15 19 29 39 31 45 2 7 16 28 30 47
28 38 32 44 90 140 56 93 78 133 132 240 43 86 60 122 105 230 8 19 19 43 24
52 6 10 10 23 10 29 0 6 7 25 15 42 8 18 30 82 50 142 19 61 40 124 46 140 6
17 15 48 19 70 11 52 29 121 43 165 6 19 14 58 18 85 4 28 12 70 18 95 21 92
33 168 41 260 4 52 13 115 20 140 10 33 13 165 13 500 0 385 -3 467 -16 532
-10 42 -17 104 -17 136 0 32 -7 81 -15 108 -8 27 -15 68 -15 92 0 23 -7 59
-15 79 -8 19 -15 54 -15 77 -1 22 -7 52 -15 66 -8 14 -14 40 -15 58 0 18 -7
49 -15 69 -8 19 -15 47 -15 62 0 14 -7 39 -15 55 -8 15 -15 36 -15 45 0 9 -7
36 -15 61 -99 301 -114 342 -126 355 -5 5 -9 15 -9 23 0 7 -9 34 -21 60 -11
26 -27 63 -36 82 -49 114 -215 433 -239 461 -8 8 -14 18 -14 22 0 10 -165 253
-211 311 -138 175 -313 360 -439 466 -36 30 -67 58 -70 62 -6 8 -113 88 -192
143 -66 47 -165 108 -253 155 -85 46 -91 49 -145 72 -19 8 -51 22 -70 31 -88
40 -130 57 -142 57 -8 0 -18 4 -23 8 -6 5 -44 18 -85 31 -41 13 -86 27 -100
32 -14 5 -45 13 -70 18 -25 5 -65 15 -90 21 -114 28 -181 39 -253 44 -43 3
-86 10 -97 16 -31 17 -591 13 -675 -5 -39 -8 -100 -15 -137 -15 l-67 0 -6 38
c-3 20 -10 51 -14 67 -5 17 -12 50 -16 75 -4 25 -13 65 -20 90 -7 25 -21 72
-30 105 -31 108 -73 226 -93 262 -7 12 -12 27 -12 34 0 19 -123 258 -184 357
-233 376 -612 721 -1006 916 -41 21 -82 41 -90 45 -16 9 -75 35 -125 56 -16 6
-47 20 -68 29 -21 9 -42 16 -48 16 -6 0 -25 6 -42 14 -51 22 -162 56 -183 56
-11 0 -25 5 -30 10 -6 6 -33 15 -60 20 -97 18 -160 31 -199 41 -22 5 -80 14
-129 19 -50 5 -104 14 -120 19 -41 12 -423 18 -651 10z"/>
</g>
</svg>
